<?xml version="1.0" encoding="UTF-8"?>
<svg width="32px" height="32px" viewBox="0 0 32 32" version="1.1" xmlns="http://www.w3.org/2000/svg" xmlns:xlink="http://www.w3.org/1999/xlink">
    <!-- Generator: Sketch 63.1 (92452) - https://sketch.com -->
    <title>Fill 42</title>
    <desc>Created with Sketch.</desc>
    <g id="ðŸ”-Additional-Icons" stroke="none" stroke-width="1" fill="none" fill-rule="evenodd">
        <g id="Line" transform="translate(-108.000000, -1030.000000)" fill="#131314">
            <g id="Icons" transform="translate(107.000000, 93.000000)">
                <path d="M31,965 C31,966.1 30.104,967 29,967 L5,967 C3.896,967 3,966.1 3,965 L3,941 C3,939.9 3.896,939 5,939 L29,939 C30.104,939 31,939.9 31,941 L31,965 L31,965 Z M29,937 L5,937 C2.791,937 1,938.79 1,941 L1,965 C1,967.21 2.791,969 5,969 L29,969 C31.209,969 33,967.21 33,965 L33,941 C33,938.79 31.209,937 29,937 L29,937 Z M23,952 L18,952 L18,947 C18,946.45 17.552,946 17,946 C16.448,946 16,946.45 16,947 L16,952 L11,952 C10.448,952 10,952.45 10,953 C10,953.55 10.448,954 11,954 L16,954 L16,959 C16,959.55 16.448,960 17,960 C17.552,960 18,959.55 18,959 L18,954 L23,954 C23.552,954 24,953.55 24,953 C24,952.45 23.552,952 23,952 L23,952 Z" id="Fill-42"></path>
            </g>
        </g>
    </g>
</svg>