<?xml version="1.0" encoding="UTF-8"?>
<svg width="30px" height="32px" viewBox="0 0 30 32" version="1.1" xmlns="http://www.w3.org/2000/svg" xmlns:xlink="http://www.w3.org/1999/xlink">
    <!-- Generator: Sketch 63.1 (92452) - https://sketch.com -->
    <title>Fill 63</title>
    <desc>Created with Sketch.</desc>
    <g id="ðŸ”-Additional-Icons" stroke="none" stroke-width="1" fill="none" fill-rule="evenodd">
        <g id="Line" transform="translate(-577.000000, -874.000000)" fill="#131314">
            <g id="Icons" transform="translate(107.000000, 93.000000)">
                <path d="M492.967,809 C492.967,810.104 492.075,811 490.975,811 L479.025,811 C477.925,811 477,810.104 477,809 L477,793.625 L485,783.93 L493,793.594 L492.967,809 L492.967,809 Z M485,781 L469.991,798.657 L471.399,800.071 L475,796 L475,809 C475,811.209 476.825,813 479.025,813 L490.975,813 C493.175,813 495,811.209 495,809 L495,796 L498.601,800.071 L500.009,798.657 L485,781 L485,781 Z" id="Fill-63"></path>
            </g>
        </g>
    </g>
</svg>