<?xml version="1.0" encoding="UTF-8"?>
<svg width="33px" height="33px" viewBox="0 0 33 33" version="1.1" xmlns="http://www.w3.org/2000/svg" xmlns:xlink="http://www.w3.org/1999/xlink">
    <!-- Generator: Sketch 63.1 (92452) - https://sketch.com -->
    <title>Fill 183</title>
    <desc>Created with Sketch.</desc>
    <g id="ðŸ”-Additional-Icons" stroke="none" stroke-width="1" fill="none" fill-rule="evenodd">
        <g id="Line" transform="translate(-576.000000, -249.000000)" fill="#131314">
            <g id="Icons" transform="translate(107.000000, 93.000000)">
                <path d="M485,185 C485,185 481.872,178.976 481,177 L497.075,161.779 L485,185 L485,185 Z M473,172 L496,161 L480,176 C479.996,175.996 473,172 473,172 L473,172 Z M500,157 C498.844,157.563 469,172 469,172 C469,172 479.052,178.059 479,178 C478.983,177.981 485,189 485,189 C485,189 500.75,158.5 501,158 C501.219,157.375 500.75,156.688 500,157 L500,157 Z" id="Fill-183"></path>
            </g>
        </g>
    </g>
</svg>