<!--?xml version="1.0" encoding="utf-8"?-->
<!-- Generator: Adobe Illustrator 18.1.1, SVG Export Plug-In . SVG Version: 6.00 Build 0)  -->

<svg version="1.1" id="_x32_" xmlns="http://www.w3.org/2000/svg" xmlns:xlink="http://www.w3.org/1999/xlink" x="0px" y="0px" viewBox="0 0 512 512" style="width: 256px; height: 256px; opacity: 1;" xml:space="preserve">
<style type="text/css">
	.st0{fill:#4B4B4B;}
</style>
<g>
	<path class="st0" d="M511.981,222.088c-0.53-49.833-20.028-96.577-54.949-131.626C422,55.247,375.329,35.849,325.55,35.849H186.431
		C83.64,35.868,0,119.489,0,222.253c0,102.773,83.64,186.412,186.431,186.44h102.81c2.704,0,4.13,1.142,4.843,2.102
		c1.735,2.32,0.968,5.574,0.694,6.496c-1.079,3.829-3.802,9.155-9.118,17.798c-4.094,6.78-7.895,12.491-8.699,13.706
		c-5.738,8.607-7.711,15.898-5.573,20.54c1.608,3.499,5.646,5.656,11.969,6.405c2.138,0.246,5.098,0.411,7.913,0.411
		c1.48,0,2.905-0.046,4.166-0.146c13.121-1.124,30.847-3.208,51.569-9.429c30.206-9.082,73.498-28.334,108.273-68.5
		c37.205-42.843,56.832-102.261,56.722-171.839L511.981,222.088z M454.272,338.64c-18.476,36.785-47.44,64.835-86.089,83.392
		c-13.066,6.24-27.064,11.221-41.628,14.802l-3.746,0.922l2.43-5.318c0.896-1.918,1.791-3.828,2.504-5.829
		c1.352-4.112,2.686-8.626,2.741-14.491c0-4.879-1.079-9.814-3.125-14.263c-3.29-7.182-9.575-13.505-17.306-17.342
		c-7.858-3.947-17.14-5.866-28.362-5.866h-95.262c-40.678,0-78.943-15.853-107.762-44.634
		c-28.782-28.8-44.624-67.075-44.643-107.762c0.019-40.66,15.862-78.925,44.643-107.743c28.818-28.772,67.084-44.626,107.762-44.626
		H325.55c40.532,0.009,78.669,15.853,107.36,44.607c28.599,28.745,44.589,67.083,45.027,107.936l0.037,3.81
		C477.936,269.5,469.97,307.318,454.272,338.64z" style="fill: rgb(0, 0, 0);"></path>
</g>
</svg>
