<?xml version="1.0" encoding="UTF-8"?>
<svg width="32px" height="32px" viewBox="0 0 32 32" version="1.1" xmlns="http://www.w3.org/2000/svg" xmlns:xlink="http://www.w3.org/1999/xlink">
    <!-- Generator: Sketch 63.1 (92452) - https://sketch.com -->
    <title>Fill 216</title>
    <desc>Created with Sketch.</desc>
    <g id="ðŸ”-Additional-Icons" stroke="none" stroke-width="1" fill="none" fill-rule="evenodd">
        <g id="Solid" transform="translate(-368.000000, -94.000000)" fill="#131314">
            <g id="Icons" transform="translate(107.000000, 94.000000)">
                <path d="M291,28 C291,29.104 290.104,30 289,30 L283.832,30 L276.464,22.535 L285,13.999 L291,19.999 L291,28 L291,28 Z M265,30 C263.896,30 263,29.104 263,28 L263,27.061 L270.945,19.945 L281.001,30 L265,30 L265,30 Z M269,4 C271.209,4 273,5.791 273,8 C273,10.209 271.209,12 269,12 C266.791,12 265,10.209 265,8 C265,5.791 266.791,4 269,4 L269,4 Z M289,0 L265,0 C262.791,0 261,1.791 261,4 L261,28 C261,30.209 262.791,32 265,32 L289,32 C291.209,32 293,30.209 293,28 L293,4 C293,1.791 291.209,0 289,0 L289,0 Z M269,10 C270.104,10 271,9.104 271,8 C271,6.896 270.104,6 269,6 C267.896,6 267,6.896 267,8 C267,9.104 267.896,10 269,10 L269,10 Z" id="Fill-216"></path>
            </g>
        </g>
    </g>
</svg>