<?xml version="1.0" encoding="UTF-8"?>
<svg width="32px" height="32px" viewBox="0 0 32 32" version="1.1" xmlns="http://www.w3.org/2000/svg" xmlns:xlink="http://www.w3.org/1999/xlink">
    <!-- Generator: Sketch 63.1 (92452) - https://sketch.com -->
    <title>Fill 217</title>
    <desc>Created with Sketch.</desc>
    <g id="ðŸ”-Additional-Icons" stroke="none" stroke-width="1" fill="none" fill-rule="evenodd">
        <g id="Line" transform="translate(-368.000000, -94.000000)" fill="#131314">
            <g id="Icons" transform="translate(107.000000, 93.000000)">
                <path d="M269,11 C267.896,11 267,10.104 267,9 C267,7.896 267.896,7 269,7 C270.104,7 271,7.896 271,9 C271,10.104 270.104,11 269,11 L269,11 Z M269,5 C266.791,5 265,6.791 265,9 C265,11.209 266.791,13 269,13 C271.209,13 273,11.209 273,9 C273,6.791 271.209,5 269,5 L269,5 Z M291,18.128 L285,12 L275.059,22.111 L271,18 L263,25.337 L263,5 C263,3.896 263.896,3 265,3 L289,3 C290.104,3 291,3.896 291,5 L291,18.128 L291,18.128 Z M291,29 C291,30.104 290.104,31 289,31 L283.832,31 L276.464,23.535 L285,14.999 L291,20.999 L291,29 L291,29 Z M265,31 C263.896,31 263,30.104 263,29 L263,28.061 L270.945,20.945 L281.001,31 L265,31 L265,31 Z M289,1 L265,1 C262.791,1 261,2.791 261,5 L261,29 C261,31.209 262.791,33 265,33 L289,33 C291.209,33 293,31.209 293,29 L293,5 C293,2.791 291.209,1 289,1 L289,1 Z" id="Fill-217"></path>
            </g>
        </g>
    </g>
</svg>