<?xml version="1.0" encoding="UTF-8"?>
<svg width="22px" height="32px" viewBox="0 0 22 32" version="1.1" xmlns="http://www.w3.org/2000/svg" xmlns:xlink="http://www.w3.org/1999/xlink">
    <!-- Generator: Sketch 63.1 (92452) - https://sketch.com -->
    <title>Fill 177</title>
    <desc>Created with Sketch.</desc>
    <g id="ðŸ”-Additional-Icons" stroke="none" stroke-width="1" fill="none" fill-rule="evenodd">
        <g id="Line" transform="translate(-373.000000, -302.000000)" fill="#131314">
            <g id="Icons" transform="translate(107.000000, 93.000000)">
                <path d="M286,234.5 C286,236.985 283.802,239 281.091,239 L272.909,239 C270.198,239 268,236.985 268,234.5 L268,231.5 C268,229.374 269.613,227.604 271.775,227.133 C273.25,228.304 275.05,229 277,229 C278.95,229 280.75,228.304 282.225,227.133 C284.387,227.604 286,229.374 286,231.5 L286,234.5 L286,234.5 Z M270,219 C270,214.582 273.134,211 277,211 C280.866,211 284,214.582 284,219 C284,223.418 280.866,227 277,227 C273.134,227 270,223.418 270,219 L270,219 Z M283.951,225.353 C285.23,223.625 286,221.412 286,219 C286,213.478 281.971,209 277,209 C272.029,209 268,213.478 268,219 C268,221.412 268.77,223.625 270.049,225.353 C267.699,226.165 266,228.373 266,231 L266,235 C266,238.313 268.687,241 272,241 L282,241 C285.313,241 288,238.313 288,235 L288,231 C288,228.373 286.301,226.165 283.951,225.353 L283.951,225.353 Z" id="Fill-177"></path>
            </g>
        </g>
    </g>
</svg>