<?xml version="1.0" encoding="UTF-8"?>
<svg width="22px" height="32px" viewBox="0 0 22 32" version="1.1" xmlns="http://www.w3.org/2000/svg" xmlns:xlink="http://www.w3.org/1999/xlink">
    <!-- Generator: Sketch 63.1 (92452) - https://sketch.com -->
    <title>Fill 176</title>
    <desc>Created with Sketch.</desc>
    <g id="ðŸ”-Additional-Icons" stroke="none" stroke-width="1" fill="none" fill-rule="evenodd">
        <g id="Solid" transform="translate(-373.000000, -302.000000)" fill="#131314">
            <g id="Icons" transform="translate(107.000000, 94.000000)">
                <path d="M277,228 C281.971,228 286,223.522 286,218 C286,212.478 281.971,208 277,208 C272.029,208 268,212.478 268,218 C268,223.522 272.029,228 277,228 L277,228 Z M285.703,225.319 C283.691,228.161 280.546,230 277,230 C273.454,230 270.309,228.161 268.297,225.319 C266.904,226.411 266,228.091 266,230 L266,234 C266,237.313 268.687,240 272,240 L282,240 C285.313,240 288,237.313 288,234 L288,230 C288,228.091 287.096,226.411 285.703,225.319 L285.703,225.319 Z" id="Fill-176"></path>
            </g>
        </g>
    </g>
</svg>